<svg width="221" height="36" viewBox="0 0 221 36" fill="none" xmlns="http://www.w3.org/2000/svg">
<path d="M28.276 14.148C28.276 15.252 28.144 16.332 27.88 17.388C27.64 18.444 27.256 19.404 26.728 20.268C26.2 21.108 25.552 21.792 24.784 22.32C24.016 22.824 23.104 23.076 22.048 23.076C20.944 23.076 20.068 22.764 19.42 22.14C18.796 21.492 18.412 20.76 18.268 19.944H18.088C17.656 20.832 17.02 21.576 16.18 22.176C15.34 22.776 14.284 23.076 13.012 23.076C11.188 23.076 9.772 22.464 8.764 21.24C7.78 20.016 7.288 18.396 7.288 16.38C7.288 14.796 7.6 13.404 8.224 12.204C8.848 10.98 9.724 10.02 10.852 9.324C12.004 8.628 13.36 8.28 14.92 8.28C15.976 8.28 17.008 8.376 18.016 8.568C19.048 8.736 19.852 8.928 20.428 9.144L20.068 16.452C20.044 16.884 20.032 17.196 20.032 17.388C20.032 17.556 20.032 17.676 20.032 17.748C20.032 18.996 20.248 19.824 20.68 20.232C21.136 20.64 21.664 20.844 22.264 20.844C23.008 20.844 23.632 20.544 24.136 19.944C24.664 19.32 25.06 18.504 25.324 17.496C25.612 16.464 25.756 15.336 25.756 14.112C25.756 11.88 25.3 9.996 24.388 8.46C23.5 6.9 22.264 5.712 20.68 4.896C19.12 4.08 17.344 3.672 15.352 3.672C13.312 3.672 11.5 3.996 9.916 4.644C8.332 5.292 7 6.204 5.92 7.38C4.864 8.556 4.06 9.948 3.508 11.556C2.956 13.14 2.68 14.892 2.68 16.812C2.68 19.164 3.1 21.168 3.94 22.824C4.78 24.456 6.004 25.704 7.612 26.568C9.244 27.408 11.236 27.828 13.588 27.828C15.052 27.828 16.444 27.66 17.764 27.324C19.108 27.012 20.296 26.664 21.328 26.28V28.728C20.296 29.16 19.132 29.508 17.836 29.772C16.564 30.06 15.148 30.204 13.588 30.204C10.756 30.204 8.332 29.676 6.316 28.62C4.3 27.564 2.752 26.052 1.672 24.084C0.616 22.092 0.0880001 19.704 0.0880001 16.92C0.0880001 14.688 0.436 12.624 1.132 10.728C1.828 8.808 2.836 7.152 4.156 5.76C5.476 4.344 7.072 3.252 8.944 2.484C10.84 1.692 12.976 1.296 15.352 1.296C17.224 1.296 18.94 1.596 20.5 2.196C22.084 2.772 23.452 3.624 24.604 4.752C25.78 5.856 26.68 7.2 27.304 8.784C27.952 10.368 28.276 12.156 28.276 14.148ZM10.096 16.452C10.096 17.988 10.396 19.104 10.996 19.8C11.62 20.496 12.448 20.844 13.48 20.844C14.824 20.844 15.784 20.34 16.36 19.332C16.96 18.324 17.308 17.016 17.404 15.408L17.62 10.908C17.308 10.812 16.912 10.728 16.432 10.656C15.952 10.584 15.46 10.548 14.956 10.548C13.78 10.548 12.832 10.836 12.112 11.412C11.392 11.988 10.876 12.732 10.564 13.644C10.252 14.532 10.096 15.468 10.096 16.452ZM37.0389 24.552H44.6709V11.196L37.0389 15.984V24.552ZM31.8549 33.552H34.0869V11.484H31.8189V9H37.0389V13.104L43.2669 9.18C43.8429 8.82 44.4549 8.64 45.1029 8.64C45.7509 8.64 46.3149 8.844 46.7949 9.252C47.2989 9.636 47.5509 10.212 47.5509 10.98V23.616C47.5509 24.72 47.3949 25.476 47.0829 25.884C46.4829 26.628 45.5589 27 44.3109 27H37.0389V33.552H39.4149V36H31.8549V33.552ZM65.6713 24.552V27H53.1433C51.9193 27 51.0913 26.76 50.6593 26.28C50.2753 25.848 50.0833 25.032 50.0833 23.832V22.5C50.0833 21.636 50.1913 21.048 50.4073 20.736C50.7193 20.28 51.4273 19.716 52.5313 19.044L60.4513 14.112V11.448H53.3953V13.536H51.0913V9H60.0913C61.3153 9 62.1673 9.264 62.6473 9.792C63.1513 10.32 63.4033 11.088 63.4033 12.096V24.552H65.6713ZM60.4513 16.992L52.9633 21.672V24.552H60.4513V16.992ZM73.7772 24.552H81.4092V11.196L73.7772 15.984V24.552ZM68.5932 33.552H70.8252V11.484H68.5572V9H73.7772V13.104L80.0052 9.18C80.5812 8.82 81.1932 8.64 81.8412 8.64C82.4892 8.64 83.0532 8.844 83.5332 9.252C84.0372 9.636 84.2892 10.212 84.2892 10.98V23.616C84.2892 24.72 84.1332 25.476 83.8212 25.884C83.2212 26.628 82.2972 27 81.0492 27H73.7772V33.552H76.1532V36H68.5932V33.552ZM102.41 24.552V27H89.8816C88.6576 27 87.8296 26.76 87.3976 26.28C87.0136 25.848 86.8216 25.032 86.8216 23.832V22.5C86.8216 21.636 86.9296 21.048 87.1456 20.736C87.4576 20.28 88.1656 19.716 89.2696 19.044L97.1896 14.112V11.448H90.1336V13.536H87.8296V9H96.8296C98.0536 9 98.9056 9.264 99.3856 9.792C99.8896 10.32 100.142 11.088 100.142 12.096V24.552H102.41ZM97.1896 16.992L89.7016 21.672V24.552H97.1896V16.992ZM116.635 9.144C117.163 8.808 117.775 8.64 118.471 8.64C119.191 8.64 119.791 8.904 120.271 9.432C120.775 9.96 121.027 10.728 121.027 11.736V23.832C121.027 24.816 120.871 25.512 120.559 25.92C119.983 26.64 119.107 27 117.931 27H105.295V24.552H107.563V2.448H105.295V-2.14577e-06H110.515V12.996L116.635 9.144ZM118.147 11.088L110.515 15.876V24.552H118.147V11.088ZM139.148 24.552V27H126.62C125.396 27 124.568 26.76 124.136 26.28C123.752 25.848 123.56 25.032 123.56 23.832V22.5C123.56 21.636 123.668 21.048 123.884 20.736C124.196 20.28 124.904 19.716 126.008 19.044L133.928 14.112V11.448H126.872V13.536H124.568V9H133.568C134.792 9 135.644 9.264 136.124 9.792C136.628 10.32 136.88 11.088 136.88 12.096V24.552H139.148ZM133.928 16.992L126.44 21.672V24.552H133.928V16.992ZM147.506 2.448V9H150.422V11.592H147.506V24.552H150.926V27H147.902C146.822 27 146.018 26.724 145.49 26.172C144.962 25.596 144.698 24.624 144.698 23.256V11.592H142.034V9H144.698V2.448H147.506ZM156.808 27C155.584 27 154.72 26.724 154.216 26.172C153.712 25.596 153.46 24.804 153.46 23.796V12.204C153.46 11.244 153.676 10.476 154.108 9.9C154.564 9.3 155.464 9 156.808 9H163.468C164.788 9 165.676 9.3 166.132 9.9C166.588 10.476 166.816 11.244 166.816 12.204V23.796C166.816 24.804 166.564 25.596 166.06 26.172C165.556 26.724 164.692 27 163.468 27H156.808ZM156.376 24.552H163.9V11.448H156.376V24.552ZM182.266 23.832C182.266 25.944 181.234 27 179.17 27H170.458V21.564H172.906V24.552H179.386V21.564L173.482 17.856C172.882 17.472 172.366 17.16 171.934 16.92C171.502 16.68 171.142 16.44 170.854 16.2C170.326 15.72 170.062 15.072 170.062 14.256V12.204C170.062 11.196 170.23 10.5 170.566 10.116C171.214 9.372 172.174 9 173.446 9H181.834V14.4H179.386V11.448H172.906V14.472L179.026 18.288C179.53 18.6 179.974 18.876 180.358 19.116C180.766 19.332 181.102 19.56 181.366 19.8C181.966 20.304 182.266 20.904 182.266 21.6V23.832ZM203.09 24.552V27H196.142V24.552H197.87V11.232L190.706 15.732V24.552H192.47V27H185.522V24.552H187.79V2.448H185.522V-2.14577e-06H190.706V12.816L196.682 9.072C197.138 8.784 197.678 8.64 198.302 8.64C198.926 8.64 199.49 8.892 199.994 9.396C200.522 9.876 200.786 10.572 200.786 11.484V24.552H203.09ZM220.851 24.552V27H208.323C207.099 27 206.271 26.76 205.839 26.28C205.455 25.848 205.263 25.032 205.263 23.832V22.5C205.263 21.636 205.371 21.048 205.587 20.736C205.899 20.28 206.607 19.716 207.711 19.044L215.631 14.112V11.448H208.575V13.536H206.271V9H215.271C216.495 9 217.347 9.264 217.827 9.792C218.331 10.32 218.583 11.088 218.583 12.096V24.552H220.851ZM215.631 16.992L208.143 21.672V24.552H215.631V16.992Z" fill="black"/>
</svg>
